<svg preserveAspectRatio="none" overflow="visible" style="display: block;" width="41.4034" height="48" viewBox="0 0 41.4034 48" fill="none" xmlns="http://www.w3.org/2000/svg">
<g id="hourglass--hourglass-loading-measure-clock-time">
<path id="Union" fill-rule="evenodd" clip-rule="evenodd" d="M12.9013 23.9983C11.7328 23.4491 10.6355 22.7595 9.6339 21.9446C7.81333 20.4566 6.61676 18.8246 5.93791 17.0589C5.26248 15.3 5.13905 13.5172 5.30362 11.7926C5.46819 10.0783 5.92076 8.38461 6.42476 6.77318C6.66133 6.02575 6.91162 5.2749 7.15848 4.54461L7.21676 4.38004C7.48076 3.59147 7.7379 2.8269 7.97105 2.06918C8.07808 1.71862 8.29465 1.41158 8.58899 1.19314C8.88333 0.974703 9.23994 0.856355 9.60648 0.855469H31.7928C32.1599 0.855622 32.5173 0.973631 32.8123 1.19213C33.1073 1.41062 33.3244 1.71806 33.4316 2.06918C33.6648 2.82347 33.9219 3.59147 34.1859 4.38004L34.2442 4.54804C34.4876 5.2749 34.7413 6.02232 34.9779 6.77661C35.4819 8.38461 35.9345 10.0818 36.099 11.7926C36.2636 13.5172 36.1402 15.3 35.4648 17.0589C34.7859 18.8246 33.5893 20.4566 31.7688 21.9446C30.7683 22.7593 29.6722 23.4489 28.5048 23.9983C29.6808 24.5537 30.7813 25.2429 31.7722 26.052C33.5893 27.54 34.7893 29.172 35.4682 30.9377C36.1436 32.6966 36.267 34.4795 36.099 36.2075C35.9379 37.9149 35.4819 39.612 34.9813 41.2235C34.7448 41.9709 34.491 42.7217 34.2476 43.452L34.1893 43.6166C33.9253 44.4052 33.6682 45.1732 33.435 45.9275C33.3278 46.2786 33.1107 46.586 32.8157 46.8045C32.5207 47.023 32.1633 47.141 31.7962 47.1412H9.6099C9.24219 47.1417 8.88404 47.0241 8.58832 46.8055C8.2926 46.587 8.07499 46.2791 7.96762 45.9275C7.7379 45.1732 7.48076 44.4052 7.21333 43.6166L7.15848 43.4486C6.9052 42.7086 6.66061 41.9657 6.42476 41.22C5.92076 39.612 5.46819 37.9183 5.30362 36.204C5.13905 34.4795 5.26248 32.6966 5.93791 30.9377C6.61676 29.172 7.81333 27.54 9.6339 26.052C10.6248 25.2429 11.7253 24.5537 12.9013 23.9983Z" fill="#F9F9FB"/>
<path id="Union_2" fill-rule="evenodd" clip-rule="evenodd" d="M2.57143 0C1.88944 0 1.23539 0.270918 0.753154 0.753154C0.270918 1.23539 0 1.88944 0 2.57143C0 3.25341 0.270918 3.90747 0.753154 4.3897C1.23539 4.87194 1.88944 5.14286 2.57143 5.14286H38.832C39.514 5.14286 40.168 4.87194 40.6503 4.3897C41.1325 3.90747 41.4034 3.25341 41.4034 2.57143C41.4034 1.88944 41.1325 1.23539 40.6503 0.753154C40.168 0.270918 39.514 0 38.832 0L2.57486 0H2.57143ZM2.57143 42.8571C1.88944 42.8571 1.23539 43.1281 0.753154 43.6103C0.270918 44.0925 0 44.7466 0 45.4286C0 46.1106 0.270918 46.7646 0.753154 47.2468C1.23539 47.7291 1.88944 48 2.57143 48H38.832C39.514 48 40.168 47.7291 40.6503 47.2468C41.1325 46.7646 41.4034 46.1106 41.4034 45.4286C41.4034 44.7466 41.1325 44.0925 40.6503 43.6103C40.168 43.1281 39.514 42.8571 38.832 42.8571H2.57486H2.57143Z" fill="#504EFD"/>
<path id="Union_3" fill-rule="evenodd" clip-rule="evenodd" d="M2.57143 0C1.88944 0 1.23539 0.270918 0.753154 0.753154C0.270918 1.23539 0 1.88944 0 2.57143C0 3.25341 0.270918 3.90747 0.753154 4.3897C1.23539 4.87194 1.88944 5.14286 2.57143 5.14286H38.832C39.514 5.14286 40.168 4.87194 40.6503 4.3897C41.1325 3.90747 41.4034 3.25341 41.4034 2.57143C41.4034 1.88944 41.1325 1.23539 40.6503 0.753154C40.168 0.270918 39.514 0 38.832 0L2.57486 0H2.57143ZM2.57143 42.8571C1.88944 42.8571 1.23539 43.1281 0.753154 43.6103C0.270918 44.0925 0 44.7466 0 45.4286C0 46.1106 0.270918 46.7646 0.753154 47.2468C1.23539 47.7291 1.88944 48 2.57143 48H38.832C39.514 48 40.168 47.7291 40.6503 47.2468C41.1325 46.7646 41.4034 46.1106 41.4034 45.4286C41.4034 44.7466 41.1325 44.0925 40.6503 43.6103C40.168 43.1281 39.514 42.8571 38.832 42.8571H2.57486H2.57143Z" fill="#504EFD"/>
<path id="Subtract" d="M30.8195 37.684C30.9635 36.9194 30.4766 36.2029 29.7737 35.8737C28.7391 35.3712 27.7319 34.8138 26.7566 34.204C25.3749 33.3777 23.9795 32.5412 22.4983 32.02C21.9213 31.8163 21.3136 31.7131 20.7017 31.7149C20.0503 31.7149 19.4503 31.8246 18.9052 32.02C17.4206 32.5412 16.032 33.3777 14.6469 34.204C13.672 34.8145 12.6648 35.3719 11.6297 35.8737C10.9235 36.2029 10.44 36.9194 10.584 37.684C10.7486 38.5583 11.0057 39.5012 11.3315 40.5434C11.5715 41.3183 11.8355 42.0863 12.096 42.8577H29.3075C29.568 42.0863 29.8286 41.3149 30.072 40.5434C30.3977 39.5046 30.6549 38.5549 30.8195 37.684Z" fill="#504EFD"/>
</g>
</svg>
