<svg preserveAspectRatio="none" overflow="visible" style="display: block;" width="20" height="20" viewBox="0 0 20 20" fill="none" xmlns="http://www.w3.org/2000/svg">
<g id="Zoom-In--Streamline-Flex" clip-path="url(#clip0_0_4)">
<g id="zoom-in--enhance-glass-in-magnify-magnifying-zoom">
<path id="Vector (Stroke)" fill-rule="evenodd" clip-rule="evenodd" d="M13.7088 13.8245C13.9767 13.5567 14.34 13.4062 14.7188 13.4062C15.0976 13.4062 15.4609 13.5567 15.7288 13.8245L19.1117 17.2074C19.3719 17.4768 19.5159 17.8377 19.5126 18.2122C19.5094 18.5868 19.3591 18.9451 19.0942 19.21C18.8294 19.4748 18.4711 19.6251 18.0965 19.6283C17.7219 19.6316 17.3611 19.4876 17.0917 19.2274L13.7088 15.8445C13.441 15.5766 13.2905 15.2133 13.2905 14.8345C13.2905 14.4557 13.441 14.0924 13.7088 13.8245Z" fill="#504EFD"/>
<path id="Union" d="M9.1955 0.230469C6.4169 0.230469 4.15186 1.0137 2.58253 2.58302C1.01321 4.15234 0.22998 6.41739 0.22998 9.19599C0.22998 11.9746 1.01321 14.2396 2.58253 15.809C4.15186 17.3783 6.4169 18.1615 9.1955 18.1615C11.9741 18.1615 14.2391 17.3783 15.8085 15.809C17.3778 14.2396 18.161 11.9746 18.161 9.19599C18.161 6.41739 17.3778 4.15234 15.8085 2.58302C14.2391 1.0137 11.9741 0.230469 9.1955 0.230469Z" fill="white"/>
</g>
<path id="Union_2" d="M9.20703 9.04688C10.173 9.04692 11.1002 9.42648 11.79 10.1035C12.4798 10.7805 12.8772 11.7011 12.8965 12.668V13.7246C12.8965 14.0155 12.6631 14.2529 12.3711 14.2529H11.3174L7.09766 14.251H6.04395C5.7535 14.2509 5.5166 14.0169 5.5166 13.7246V12.668C5.53589 11.7012 5.93343 10.7805 6.62305 10.1035C7.31292 9.42642 8.24096 9.04688 9.20703 9.04688ZM9.20801 4.13672C9.49552 4.13674 9.78028 4.19356 10.0459 4.30371C10.3115 4.41389 10.5525 4.57574 10.7559 4.7793C10.9592 4.98286 11.1204 5.22428 11.2305 5.49023C11.3405 5.75623 11.3975 6.04119 11.3975 6.3291C11.3975 6.61701 11.3405 6.90198 11.2305 7.16797C11.1204 7.43392 10.9592 7.67535 10.7559 7.87891C10.5525 8.08246 10.3115 8.24432 10.0459 8.35449C9.78028 8.46465 9.49552 8.52146 9.20801 8.52148C8.62724 8.52148 8.06984 8.29006 7.65918 7.87891C7.24873 7.46779 7.01856 6.91039 7.01855 6.3291C7.01855 5.74781 7.24874 5.19041 7.65918 4.7793C8.06984 4.36815 8.62724 4.13672 9.20801 4.13672Z" fill="#504EFD"/>
</g>
<defs>
<clipPath id="clip0_0_4">
<rect width="20" height="20" fill="white"/>
</clipPath>
</defs>
</svg>
