<svg preserveAspectRatio="none" overflow="visible" style="display: block;" width="13.7511" height="19.5999" viewBox="0 0 13.7511 19.5999" fill="none" xmlns="http://www.w3.org/2000/svg">
<g id="lightbulb--lighting-light-incandescent-bulb-lights">
<path id="Vector" d="M10.2509 0.886461C8.90991 0.130242 7.35386 -0.153934 5.83211 0.0794708C4.31036 0.312875 2.91101 1.05035 1.85828 2.17372C0.805557 3.29709 0.160396 4.74132 0.0261809 6.275C-0.108035 7.80869 0.276464 9.34303 1.11807 10.6322C1.29664 10.905 1.45521 11.1407 1.59807 11.3507C1.91235 11.8179 2.14664 12.1622 2.33092 12.5407C2.54235 12.975 2.67807 13.4422 2.70521 14.1636V16.8079C2.70521 18.2307 3.75235 19.4422 5.17092 19.5365C5.71807 19.5736 6.30521 19.5993 6.87664 19.5993C7.44807 19.5993 8.03378 19.5736 8.58092 19.5365C10.0009 19.4422 11.0481 18.2307 11.0481 16.8079V14.1907C11.0752 13.4422 11.2238 12.9607 11.4538 12.5065C11.5895 12.2393 11.7595 11.9722 11.9738 11.6493C12.227 11.279 12.4727 10.9037 12.7109 10.5236C13.3857 9.44368 13.7458 8.19697 13.7509 6.9236C13.7593 5.69655 13.4392 4.4896 12.8237 3.42801C12.2083 2.36642 11.32 1.48889 10.2509 0.886461Z" fill="white"/>
<path id="Vector_2" d="M6.87651 19.5999C6.30508 19.5999 5.71936 19.5742 5.17079 19.5371C3.75222 19.4428 2.70508 18.2314 2.70508 16.8085V14.8242H11.0479V16.8099C11.0479 18.2314 10.0008 19.4428 8.58079 19.5385C8.01351 19.5772 7.44511 19.5972 6.87651 19.5985V19.5999Z" fill="#504EFD"/>
</g>
</svg>
