<svg preserveAspectRatio="none" overflow="visible" style="display: block;" width="65.5054" height="64.8147" viewBox="0 0 65.5054 64.8147" fill="none" xmlns="http://www.w3.org/2000/svg">
<path id="Vector" fill-rule="evenodd" clip-rule="evenodd" d="M31.0791 64.8147C37.945 64.8147 43.511 59.4257 43.511 52.7779V44.4444H21.9944V42.1297H53.0738C59.9394 42.1297 65.5054 36.7404 65.5054 30.0926V12.0369C65.5054 5.38912 59.9394 0 53.0738 0H45.9016V10.1851C45.9016 16.8332 40.3357 22.2222 33.47 22.2222H10.5191C4.70941 22.2222 0 26.7822 0 32.4072V52.7779C0 59.4257 5.56597 64.8147 12.4316 64.8147H31.0791ZM33.9482 50.0001C31.5713 50.0001 29.6447 51.8654 29.6447 54.1666C29.6447 56.4679 31.5713 58.3332 33.9482 58.3332C36.3247 58.3332 38.2513 56.4679 38.2513 54.1666C38.2513 51.8654 36.3247 50.0001 33.9482 50.0001Z" fill="#3D3F55"/>
</svg>
